<svg width="450" height="116" viewBox="0 0 450 116" fill="none" xmlns="http://www.w3.org/2000/svg">
<path d="M49.824 38.608V51.76H22.368V65.968H42.912V78.736H22.368V106H5.952V38.608H49.824ZM100.404 94.096H75.252L71.22 106H54.036L78.42 38.608H97.428L121.812 106H104.436L100.404 94.096ZM96.18 81.424L87.828 56.752L79.572 81.424H96.18ZM187.601 38.608V106H171.185V78.256H145.649V106H129.233V38.608H145.649V65.008H171.185V38.608H187.601ZM215.868 38.608V106H199.452V38.608H215.868ZM259.637 106.672C253.301 106.672 247.477 105.2 242.165 102.256C236.917 99.312 232.725 95.216 229.589 89.968C226.516 84.656 224.98 78.704 224.98 72.112C224.98 65.52 226.516 59.6 229.589 54.352C232.725 49.104 236.917 45.008 242.165 42.064C247.477 39.12 253.301 37.648 259.637 37.648C265.973 37.648 271.765 39.12 277.013 42.064C282.325 45.008 286.485 49.104 289.493 54.352C292.565 59.6 294.101 65.52 294.101 72.112C294.101 78.704 292.565 84.656 289.493 89.968C286.421 95.216 282.261 99.312 277.013 102.256C271.765 105.2 265.973 106.672 259.637 106.672ZM259.637 91.696C265.013 91.696 269.301 89.904 272.5 86.32C275.765 82.736 277.397 78 277.397 72.112C277.397 66.16 275.765 61.424 272.5 57.904C269.301 54.32 265.013 52.528 259.637 52.528C254.197 52.528 249.845 54.288 246.581 57.808C243.381 61.328 241.781 66.096 241.781 72.112C241.781 78.064 243.381 82.832 246.581 86.416C249.845 89.936 254.197 91.696 259.637 91.696Z" fill="black"/>
<path d="M362.24 106H345.824L318.368 64.432V106H301.952V38.608H318.368L345.824 80.368V38.608H362.24V106Z" fill="black"/>
<path d="M406.358 106H389.942L362.486 64.432V106H346.07V38.608H362.486L389.942 80.368V38.608H406.358V106Z" fill="black"/>
</svg>
